# xmcd
#
# Track frame offsets: 
#        150
#        23777
#        44323
#        67886
#        90309
#        112517
#        127676
#        146521
#        165877
#        184272
#        206725
#        224766
#
# Disc length: 3252 seconds
#
# Revision: 0
# Processed by: cddbd v1.5.2PL0 Copyright (c) Steve Scherf et al.
# Submitted via: ExactAudioCopy v1.0b3
#
DISCID=970cb20c
DTITLE=Cyril Neville - Magic Honey
DYEAR=2013
DGENRE=Blues
TTITLE0=Magic Honey
TTITLE1=Swamp Funk
TTITLE2=Something's Got a Hold On Me
TTITLE3=Another Man
TTITLE4=Still Going Down Today
TTITLE5=You Can Run But You Can't Hide
TTITLE6=Invisible
TTITLE7=Blues Is The Truth
TTITLE8=Running Water
TTITLE9=Working Man
TTITLE10=Money and Oil
TTITLE11=Slow Motion
EXTD=
EXTT0=
EXTT1=
EXTT2=
EXTT3=
EXTT4=
EXTT5=
EXTT6=
EXTT7=
EXTT8=
EXTT9=
EXTT10=
EXTT11=
PLAYORDER=
